HIERARCHY
ROOT hip
{
	OFFSET 0.000000 0.000000 0.000000 
	CHANNELS 6 Xposition Yposition Zposition Xrotation Zrotation Yrotation
	JOINT abdomen
	{
		OFFSET 0.000000 3.402643 0.000000 
		CHANNELS 3 Xrotation Zrotation Yrotation
		JOINT chest
		{
			OFFSET 0.000000 8.438565 -0.680529 
			CHANNELS 3 Xrotation Zrotation Yrotation
			JOINT neck
			{
				OFFSET 0.000000 10.207942 -0.272212 
				CHANNELS 3 Xrotation Zrotation Yrotation
				JOINT head
				{
					OFFSET 0.000000 3.130431 0.000000 
					CHANNELS 3 Xrotation Zrotation Yrotation
					End Site
					{
						OFFSET 0.000000 3.130435 0.000000 
					}
				}
			}
			JOINT lCollar
			{
				OFFSET 3.470700 6.669187 -0.816635 
				CHANNELS 3 Yrotation Zrotation Xrotation
				JOINT lShldr
				{
					OFFSET 3.198488 0.000000 0.000000 
					CHANNELS 3 Zrotation Yrotation Xrotation
					JOINT lForeArm
					{
						OFFSET 10.139888 0.000000 0.000000 
						CHANNELS 3 Yrotation Zrotation Xrotation
						JOINT lHand
						{
							OFFSET 8.370511 0.000000 0.000000 
							CHANNELS 3 Zrotation Yrotation Xrotation
							End Site
							{
								OFFSET 4.083176 0.000000 0.000000 
							}
						}
					}
				}
			}
			JOINT rCollar
			{
				OFFSET -3.470700 6.669187 -0.816635 
				CHANNELS 3 Yrotation Zrotation Xrotation
				JOINT rShldr
				{
					OFFSET -3.198488 0.000000 0.000000 
					CHANNELS 3 Zrotation Yrotation Xrotation
					JOINT rForeArm
					{
						OFFSET -10.139888 0.000000 0.000000 
						CHANNELS 3 Yrotation Zrotation Xrotation
						JOINT rHand
						{
							OFFSET -8.370511 0.000000 0.000000 
							CHANNELS 3 Zrotation Yrotation Xrotation
							End Site
							{
								OFFSET -4.083176 0.000000 0.000000 
							}
						}
					}
				}
			}
		}
	}
	JOINT lThigh
	{
		OFFSET 5.308129 -1.633274 1.361059 
		CHANNELS 3 Xrotation Zrotation Yrotation
		JOINT lShin
		{
			OFFSET -2.041588 -20.007561 0.000000 
			CHANNELS 3 Xrotation Zrotation Yrotation
			JOINT lFoot
			{
				OFFSET 0.000000 -19.190928 -1.224953 
				CHANNELS 3 Xrotation Yrotation Zrotation
				End Site
				{
					OFFSET 0.000000 -2.449906 4.627600 
				}
			}
		}
	}
	JOINT rThigh
	{
		OFFSET -5.308129 -1.633274 1.361059 
		CHANNELS 3 Xrotation Zrotation Yrotation
		JOINT rShin
		{
			OFFSET 2.041588 -20.007561 0.000000 
			CHANNELS 3 Xrotation Zrotation Yrotation
			JOINT rFoot
			{
				OFFSET 0.000000 -19.190928 -1.224953 
				CHANNELS 3 Xrotation Yrotation Zrotation
				End Site
				{
					OFFSET 0.000000 -2.449906 4.627600 
				}
			}
		}
	}
}
MOTION
Frames: 10
Frame Time: 0.016667
-0.505558 44.167450 2.293125 2.712800 -10.652400 2.827880 -22.186300 -8.365500 4.783530 17.845200 -3.921400 0.927320 23.007900 -4.670850 11.067500 16.460600 6.050340 6.052930 2.000000 -2.000000 0.000000 -34.797001 7.650070 103.140999 46.836399 -0.308375 0.099778 0.075462 -0.079463 -166.608994 -2.000000 2.000000 0.000000 -4.401110 -3.131670 107.966003 -62.227100 0.278555 0.120972 -0.055677 0.020211 -144.158005 -16.206903 13.700632 -15.537984 36.541904 3.442317 2.379364 -19.580658 9.150748 3.658351 -9.165302 12.453278 -3.794979 25.385437 -2.247061 -2.193202 -17.519432 -5.711402 -2.571162 
-0.603617 44.126682 2.346779 2.598610 -11.229000 3.046610 -22.269199 -8.757090 5.019950 17.795000 -4.282150 0.977272 23.050900 -4.942190 11.778200 16.442699 6.117590 6.407280 2.000000 -2.000000 0.000000 -35.928600 7.571680 102.642998 46.563000 -0.308850 0.099330 0.075925 -0.080270 -166.940994 -2.000000 2.000000 0.000000 -5.504820 -3.287850 107.877998 -62.852100 0.277232 0.121660 -0.055438 0.018229 -143.445007 -16.371590 14.345054 -15.960602 36.908325 3.421632 2.418322 -19.781631 9.126585 3.696968 -8.916539 13.093136 -4.196063 25.023794 -2.222115 -2.166000 -17.346458 -5.476448 -2.494517 
-0.685902 44.086037 2.410092 2.455170 -11.903400 3.212810 -22.259100 -9.079570 5.274100 17.901400 -4.643470 1.044480 23.151199 -5.539510 12.505100 16.510201 6.068170 6.775160 2.000000 -2.000000 0.000000 -37.109901 7.503240 102.486000 46.133301 -0.309592 0.098623 0.076227 -0.090555 -167.156006 -2.000000 2.000000 0.000000 -6.715860 -3.658910 107.829002 -63.750500 0.275317 0.122623 -0.055237 0.016380 -142.781006 -16.419096 15.020829 -16.293827 37.368336 3.431741 2.417067 -20.167192 9.093529 3.829067 -8.606894 13.855715 -4.562901 24.610508 -2.219728 -2.125097 -17.113352 -5.470034 -2.465541 
-0.768183 44.045403 2.473406 2.301350 -12.578100 3.384570 -22.249001 -9.393120 5.524340 18.007799 -5.014590 1.100990 23.245600 -6.134630 13.239400 16.577999 6.028290 7.145040 2.000000 -2.000000 0.000000 -38.291199 7.444560 102.330002 45.693802 -0.310345 0.097893 0.076531 -0.091075 -167.371002 -2.000000 2.000000 0.000000 -7.936630 -4.020210 107.790001 -64.658699 0.273365 0.123566 -0.055056 0.014502 -142.106995 -16.551180 15.807168 -16.631702 37.793514 3.410075 2.454967 -20.474743 8.984235 3.872072 -8.228653 14.627861 -4.883113 24.044678 -2.185215 -2.119771 -16.790897 -5.412525 -2.436012 
-0.865869 44.001671 2.510252 2.246650 -13.173800 3.821560 -22.265100 -9.767790 5.666220 17.986700 -5.375480 1.119680 23.441200 -6.802350 14.071200 16.724501 5.995960 7.564170 2.000000 -2.000000 0.000000 -39.375000 7.200400 102.280998 45.137199 -0.311291 0.096961 0.077032 -0.091922 -167.722000 -2.000000 2.000000 0.000000 -9.245240 -4.488950 107.769997 -65.684097 0.271145 0.124594 -0.054804 0.011394 -140.994003 -16.951368 16.515163 -17.033451 38.137897 3.403123 2.468771 -20.646950 8.618670 3.769522 -8.014829 15.305751 -5.356942 23.578108 -2.135709 -2.109910 -16.640978 -5.416510 -2.462746 
-0.963557 43.957951 2.547122 2.181880 -13.769700 4.264250 -22.283199 -10.154900 5.804280 17.965500 -5.736360 1.127980 23.633301 -7.476320 14.893900 16.871000 5.963620 7.983140 2.000000 -2.000000 0.000000 -40.458900 6.966000 102.234001 44.570801 -0.312244 0.096003 0.077539 -0.092766 -168.074005 -2.000000 2.000000 0.000000 -10.553900 -4.967450 107.750000 -66.719299 0.268885 0.125591 -0.054611 0.008256 -139.871002 -17.368299 17.232840 -17.443872 38.504456 3.376727 2.504760 -20.817760 8.230647 3.673133 -7.878100 15.996710 -5.863773 23.207376 -2.111751 -2.103301 -16.508400 -5.436732 -2.476705 
-1.036731 43.917824 2.610750 1.954360 -14.210800 4.430060 -22.272301 -10.545300 5.989780 17.993401 -6.068190 1.159320 23.324200 -8.228330 15.705100 16.798401 5.813000 8.390880 2.000000 -2.000000 0.000000 -41.405300 6.819330 101.873001 43.906700 -0.313349 0.094868 0.077497 -0.092696 -168.044998 -2.000000 2.000000 0.000000 -12.028700 -5.055260 107.641998 -67.598198 0.266952 0.126405 -0.054448 0.003965 -138.337997 -17.331757 17.747242 -17.790888 38.788971 3.377713 2.511789 -21.013460 8.238063 3.707102 -7.458303 16.550943 -6.008558 22.846579 -2.086288 -2.096291 -16.416245 -5.434380 -2.470270 
-1.109904 43.877571 2.674379 1.716050 -14.661700 4.603910 -22.262100 -10.932400 6.184080 18.031099 -6.400080 1.179470 23.009501 -8.974930 16.529400 16.716101 5.662530 8.787270 2.000000 -2.000000 0.000000 -42.341999 6.662910 101.521004 43.242599 -0.314442 0.093720 0.077454 -0.092625 -168.014999 -2.000000 2.000000 0.000000 -13.503600 -5.152830 107.525002 -68.486900 0.264985 0.127198 -0.054399 -0.000328 -136.804993 -17.278236 18.267849 -18.139511 39.083813 3.376704 2.528532 -21.236944 8.250217 3.758119 -7.085836 17.115723 -6.150151 22.544651 -2.059981 -2.088049 -16.340034 -5.440964 -2.480196 
-1.187842 43.838993 2.730559 1.568190 -15.150800 4.774520 -22.344500 -11.232200 6.471420 17.980200 -6.741290 1.268490 22.812000 -9.470830 17.085400 16.636200 5.607250 9.040260 2.000000 -2.000000 0.000000 -43.113400 6.262520 101.521004 42.510201 -0.315631 0.092439 0.077780 -0.093163 -168.240005 -2.000000 2.000000 0.000000 -15.193000 -5.367690 107.543999 -69.238800 0.263312 0.127845 -0.054461 0.005282 -135.320007 -17.347363 18.816076 -18.609240 39.361641 3.344490 2.543625 -21.459707 8.314487 3.841438 -6.846770 17.718023 -6.395811 22.288683 -2.059950 -2.064294 -16.278198 -5.383833 -2.444268 
-1.265794 43.800419 2.786762 1.419830 -15.649700 4.947350 -22.427601 -11.531700 6.757680 17.929199 -7.082470 1.369040 22.606400 -9.967720 17.655100 16.556400 5.551920 9.283640 2.000000 -2.000000 0.000000 -43.884899 5.862130 101.521004 41.777802 -0.316803 0.091144 0.078108 -0.093700 -168.464996 -2.000000 2.000000 0.000000 -16.882401 -5.582550 107.564003 -69.990799 0.261630 0.128470 -0.054631 0.001129 -133.835999 -17.418966 19.368441 -19.069857 39.647293 3.333948 2.556514 -21.681866 8.392320 3.899784 -6.587662 18.315529 -6.592828 21.948822 -2.019086 -2.054482 -16.157211 -5.335499 -2.443870 
